#!OML:ASF F:\VICON\USERDATA\INSTALL\rory3\rory3.ASF
:FULLY-SPECIFIED
:DEGREES
96
root 1.4697879947163628 17.901597786005624 50.88507079410258 -2.820726417964771 -3.2565616657846914 -4.69207305339158
lfemur -1.4340853562925444 -1.0166304002630473 -13.886159056650522
ltibia 54.00939570778229
lfoot -6.217519885097783 1.5578124441073231
ltoes -6.110638101404283
rfemur -14.957236582323585 4.599898453167101 29.244794178744716
rtibia 26.66519684623978
rfoot -15.621905087657948 -10.461136598888807
rtoes 2.739167070466168
lowerback 1.0 -0.3778845962706835 3.3087224454597592
upperback 0.22388102326084974 0.2924414392117457 2.660496886252952
thorax -4.998806195594228 0.1461741597410519 1.9856620026092378
lowerneck -17.222604515005106 -2.8188609455699227 -1.441687909230775
upperneck 21.302766517432957 -3.5465441630029297 0.4427445555562539
head 9.600241578975712 -1.7433133450343063 -0.006954729093793466
lclavicle -1.0902590106149787e-15 -4.157190821146124e-16
lhumerus -25.573100841607417 -4.294631838955798 83.65279378244718
lradius 25.176075430812972
lwrist 5.457688019533309
lhand -26.838080604774305 23.603463087345244
lfingers nan
lthumb -0.4092548877671291 53.37432458250382
rclavicle -1.2286474804779413e-15 -5.179276092870756e-16
rhumerus -30.1182345821239 -21.496168925939852 -78.3972396648615
rradius 28.929041449145068
rwrist 4.00399440440228
rhand -17.420809503074555 1.0
rfingers nan
rthumb 9.077376258595303 -7.71149864804889
97
root 1.4422812568468077 17.909280614590113 50.306840072410054 -2.860628024833665 -3.039779604174288 -5.685827360427949
lfemur -5.1232858157980665 -0.5156104073537948 -12.275516752884208
ltibia 57.16813245801279
lfoot -6.462105874066729 1.9263568320232682
ltoes -6.934216997961091
rfemur -12.10648790695605 4.950934925090376 30.16546247875847
rtibia 26.879845121180225
rfoot -16.793728376022692 -11.330256391489295
rtoes 2.30506525213015
lowerback 1.0 -0.029967604636264245 4.166740552455904
upperback 0.24272712275327135 0.9359701123319567 2.748346975354658
thorax -5.048452500562485 0.47908828638165823 1.4706805219730357
lowerneck -17.292998975197012 -2.911838416334005 -1.2724423100972384
upperneck 21.083838278770088 -3.687481802837219 0.46390830953424844
head 9.529705935464133 -1.7991876819405443 -0.047459574185863135
lclavicle -1.086493304563836e-15 -4.1496635168838226e-16
lhumerus -26.262920626142062 -3.8901508833976255 83.83415153225572
lradius 23.914153265734786
lwrist 5.865493330699143
lhand -26.886813556072507 23.549216958386054
lfingers nan
lthumb -0.4532487660152476 53.30732385658415
rclavicle -1.2172307101933249e-15 -5.140188249199776e-16
rhumerus -29.903033276439174 -21.5681119296304 -78.24012114879206
rradius 28.892354837312126
rwrist 4.1271818579564385
rhand -17.458903185093984 1.0
rfingers nan
rthumb 9.095451808327523 -7.676587992656869
98
root 1.399499728169448 17.91503271122151 49.57287982388769 -2.9222613923787453 -2.3033534163771776 -6.578515229445687
lfemur -9.1816932731708 -0.39669777805384543 -11.452324799735784
ltibia 59.405948407620556
lfoot -6.965291696308052 2.129860567767437
ltoes -8.284695252607687
rfemur -9.908197053419775 4.9015435820871955 30.637773060434043
rtibia 27.485774895653606
rfoot -17.13521507433032 -11.633824077667292
rtoes 1.6563417979396426
lowerback 1.0 0.2525239783232689 4.9557341436537286
upperback 0.2584442587291346 1.4832602403203357 2.797013985493643
thorax -5.077507421411795 0.736578939109841 0.8520806193157608
lowerneck -17.2876805370411 -3.0176512669750015 -1.1655092634332844
upperneck 20.889675309601465 -3.8449446313611895 0.5071122517198488
head 9.468020529849118 -1.8614078514255055 -0.0793109767504887
lclavicle -1.0831107019679319e-15 -4.147574910795812e-16
lhumerus -27.036303903477304 -3.3731963410387777 84.01188491293937
lradius 22.81511407024562
lwrist 6.3006405680086
lhand -26.882537518443204 23.57545479033358
lfingers nan
lthumb -0.4926036410108302 53.25234281395419
rclavicle -1.2029139475913857e-15 -5.083878149836046e-16
rhumerus -29.612853414691052 -21.447608002107707 -78.11992598339248
rradius 28.85883705223563
rwrist 4.140783071531356
rhand -17.448032234306588 1.0
rfingers nan
rthumb 9.085636065780465 -7.7097567421497315
99
root 1.3638488435976668 17.922389477210444 49.84340766881669 -2.9698796933681098 -1.290037028890771 -6.815169453850771
lfemur -12.855300180250794 -0.6588248431329682 -11.824090364848548
ltibia 60.13653107350089
lfoot -7.8722220251056445 2.3101657890225744
ltoes -8.47422624251585
rfemur -7.9219068894632825 4.494371583354696 30.44954530646806
rtibia 28.179811161549935
rfoot -16.56661363242589 -11.455462290284682
rtoes 1.143009473382255
lowerback 1.0 0.44757852561568984 5.33769730044143
upperback 0.2643292988235634 1.8102781220114568 2.7138425508533937
thorax -5.073116500279615 0.8879812161505711 0.31142538772207606
lowerneck -17.194455739858824 -3.11624511184746 -1.1333586059344116
upperneck 20.79040751509381 -3.9900360242445583 0.5581008159922277
head 9.43842945555938 -1.9187010038605912 -0.1004768533504189
lclavicle -1.0793073125798839e-15 -4.1454253964902796e-16
lhumerus -27.911285620829506 -2.7559074465369386 84.1835290844203
lradius 21.99505134394219
lwrist 6.65985400150298
lhand -26.93575098283798 23.480637687435483
lfingers nan
lthumb -0.5397699910653202 53.18333571620416
rclavicle -1.1836776693265204e-15 -4.998722922764701e-16
rhumerus -29.288159724049514 -21.165775842198595 -78.00650309181759
rradius 28.845527736437923
rwrist 4.094261808662708
rhand -17.480888900294435 1.0
rfingers nan
rthumb 9.105289676466588 -7.6797692635198285
100
root 1.3246485043660434 17.915696552845127 49.2436755248869 -3.15442581471102 -0.5767172880080016 -6.174093718794097
lfemur -15.458203605087803 -1.11413562264149 -13.133186104658613
ltibia 59.04359616340167
lfoot -7.231315559966523 3.441006600782285
ltoes -9.965184702987042
rfemur -6.08005825713995 3.974970059568143 29.64325425884099
rtibia 28.8345990299793
rfoot -15.235020400819504 -11.05466736315183
rtoes 0.8524609961457457
lowerback 1.0 0.6014674738713369 5.065812337989884
upperback 0.2789071911059046 1.9940973134081443 2.4892176134268613
thorax -5.032937784434676 0.9771352212638518 -0.08408020491078494
lowerneck -17.030257052501824 -3.1955893476858197 -1.1564073653065603
upperneck 20.817915392746347 -4.1084779596685905 0.6087709295653236
head 9.452462585099628 -1.9658392390620012 -0.11243954123408031
lclavicle -1.076801675030602e-15 -4.1498656361308697e-16
lhumerus -28.89313459246021 -2.0748765221951935 84.34255039382785
lradius 21.512831552258366
lwrist 6.91308593591323
lhand -26.988138665157933 23.418639502970855
lfingers nan
lthumb -0.6173223790693076 53.08023469515548
rclavicle -1.1651583149557623e-15 -4.910069921300499e-16
rhumerus -28.937339511438353 -20.756697682968312 -77.8641428618888
rradius 28.863471690763287
rwrist 3.915042379815465
rhand -17.46674015637699 1.0
rfingers nan
rthumb 9.091723555657953 -7.713147378034262
101
root 1.324543570036428 17.908419687099208 49.86064593550989 -3.4027258200781185 0.09069998153056424 -5.01771715331739
lfemur -16.914300147628637 -1.6722064699315522 -14.88266040331115
ltibia 56.213559671321484
lfoot -7.780275137778327 2.70356029369314
ltoes -9.94897916688349
rfemur -4.764433410883124 3.406530435343501 28.342304019384954
rtibia 29.572753006897813
rfoot -13.130874716632889 -10.472715417918224
rtoes 0.791571821166074
lowerback 1.0 0.7151203457605608 4.4152091760035805
upperback 0.29627102938395217 1.997414668875071 2.179635154038333
thorax -4.95792952765385 0.9897411351796158 -0.3036503414997984
lowerneck -16.84030080019395 -3.2582917058519216 -1.2291666072058847
upperneck 20.950213069053955 -4.205872085198325 0.6688593495172321
head 9.50303096630485 -2.004721317725441 -0.11292139869525694
lclavicle -1.0761906806527823e-15 -4.1627808901869025e-16
lhumerus -29.90329493005192 -1.326611563943864 84.4966247854354
lradius 21.345633673247107
lwrist 7.121578614734382
lhand -27.091476197673543 23.3231082597015
lfingers nan
lthumb -0.7298234985847134 52.97107292161338
rclavicle -1.1516332748380624e-15 -4.844691689771063e-16
rhumerus -28.604881392728263 -20.27572369142957 -77.71392273460289
rradius 28.918460748225012
rwrist 3.6761741993066845
rhand -17.48831097872394 1.0
rfingers nan
rthumb 9.111531329736776 -7.653233259755779
102
root 1.320238621257044 17.901510101181792 50.590667522443546 -3.5272402779622336 0.7947713277116479 -4.422653500962896
lfemur -17.561311981141415 -2.2314373679252055 -16.084316185492632
ltibia 52.0449450369624
lfoot -8.311713202546187 3.9362759601041732
ltoes -10.56232653749252
rfemur -3.872614462096733 2.97998782520313 27.474673923853988
rtibia 30.501422272406867
rfoot -10.504983791490414 -9.874269889743776
rtoes 1.1076588672095276
lowerback 1.0 0.7807032926895697 4.0809709545056805
upperback 0.297810160358608 2.018365325802348 1.92049918647721
thorax -4.891497476530063 1.005265596926995 -0.5095763235061552
lowerneck -16.665284601172065 -3.3037422660069504 -1.327792543199084
upperneck 21.131662214386658 -4.279919549777338 0.7451842553452348
head 9.56881597270955 -2.033791569948613 -0.09817148062196093
lclavicle -1.0773736206852148e-15 -4.182597789064145e-16
lhumerus -30.86523227236946 -0.5533672641223182 84.63845434791222
lradius 21.440833083151304
lwrist 7.339093978748092
lhand -27.17523414596027 23.284510172248936
lfingers nan
lthumb -0.8315928555372225 52.89345275895901
rclavicle -1.142351838559609e-15 -4.79421970768337e-16
rhumerus -28.346515652215043 -19.816524204519286 -77.62083136039558
rradius 29.001636720753343
rwrist 3.6871994803694084
rhand -17.463492931842953 1.0
rfingers nan
rthumb 9.096189471201848 -7.674851751770248
